name rise30.3154peak39.0474fall46.5389.mot
datacolumns 19
datarows 29
range 16.11160800000000 16.15827700000000
endheader
time	ground_force1_vx	ground_force1_vy	ground_force1_vz	ground_force1_px	ground_force1_py	ground_force1_pz	ground_force2_vx	ground_force2_vy	ground_force2_vz	ground_force2_px	ground_force2_py	ground_force2_pz	ground_torque1_x	ground_torque1_y	ground_torque1_z	ground_torque2_x	ground_torque2_y	ground_torque2_z	
16.11160800000000	-0.05511800000000	42.16852400000000	-4.76689300000000	0.36308800000000	0.00000000000000	0.11548500000000	-41.96795500000000	781.14676499999996	-67.58858900000000	0.18508500000000	0.00000000000000	-0.10149400000000	0.00000000000000	-4.61552000000000	0.00000000000000	0.00000000000000	-31.64677900000000	0.00000000000000	
16.11327200000000	0.01966200000000	49.60659800000000	-5.36570900000000	0.36716000000000	0.00000000000000	0.11626800000000	-42.21391500000000	778.90343199999995	-67.49654000000000	0.18427800000000	0.00000000000000	-0.10143700000000	0.00000000000000	-5.22828700000000	0.00000000000000	0.00000000000000	-31.51776300000000	0.00000000000000	
16.11494500000000	0.12646700000000	57.18703000000000	-5.90902500000000	0.37081500000000	0.00000000000000	0.11697400000000	-42.47034100000000	776.53395300000000	-67.37990700000000	0.18346400000000	0.00000000000000	-0.10137700000000	0.00000000000000	-5.79574400000000	0.00000000000000	0.00000000000000	-31.38411700000000	0.00000000000000	
16.11661000000000	0.26955000000000	64.81623700000000	-6.38306500000000	0.37412600000000	0.00000000000000	0.11761600000000	-42.73765800000000	774.03697599999998	-67.23808900000000	0.18264400000000	0.00000000000000	-0.10131500000000	0.00000000000000	-6.30505700000000	0.00000000000000	0.00000000000000	-31.24594500000000	0.00000000000000	
16.11827200000000	0.45279600000000	72.42228900000001	-6.77815400000000	0.37715100000000	0.00000000000000	0.11820500000000	-43.01622100000000	771.41114800000003	-67.07050800000000	0.18181700000000	0.00000000000000	-0.10124900000000	0.00000000000000	-6.74744100000000	0.00000000000000	0.00000000000000	-31.10334700000000	0.00000000000000	
16.11994000000000	0.67966000000000	79.95726100000000	-7.08881500000000	0.37993700000000	0.00000000000000	0.11874600000000	-43.30631300000000	768.65511300000003	-66.87661400000000	0.18098500000000	0.00000000000000	-0.10118100000000	0.00000000000000	-7.11826500000000	0.00000000000000	0.00000000000000	-30.95641900000000	0.00000000000000	
16.12161300000000	0.95313600000000	87.39721800000000	-7.31351600000000	0.38252200000000	0.00000000000000	0.11924800000000	-43.60814100000000	765.76751500000000	-66.65588400000000	0.18014700000000	0.00000000000000	-0.10110900000000	0.00000000000000	-7.41679600000000	0.00000000000000	0.00000000000000	-30.80525300000000	0.00000000000000	
16.12327900000000	1.27575600000000	94.74020700000000	-7.45413600000000	0.38493700000000	0.00000000000000	0.11971500000000	-43.92183000000000	762.74699299999997	-66.40782900000001	0.17930400000000	0.00000000000000	-0.10103400000000	0.00000000000000	-7.64567200000000	0.00000000000000	0.00000000000000	-30.64993500000000	0.00000000000000	
16.12494500000000	1.64961200000000	102.00278400000001	-7.51524500000000	0.38720700000000	0.00000000000000	0.12015100000000	-44.24742600000000	759.59218599999997	-66.13199200000000	0.17845600000000	0.00000000000000	-0.10095500000000	0.00000000000000	-7.81017800000000	0.00000000000000	0.00000000000000	-30.49054500000000	0.00000000000000	
16.12660600000000	2.07639300000000	109.21561600000000	-7.50330100000000	0.38935400000000	0.00000000000000	0.12056000000000	-44.58488800000000	756.30173300000001	-65.82794800000001	0.17760500000000	0.00000000000000	-0.10087300000000	0.00000000000000	-7.91743400000000	0.00000000000000	0.00000000000000	-30.32715800000000	0.00000000000000	
16.12827500000000	2.55743500000000	116.41867000000001	-7.42582200000000	0.39139300000000	0.00000000000000	0.12094600000000	-44.93408600000000	752.87427300000002	-65.49531399999999	0.17675100000000	0.00000000000000	-0.10078700000000	0.00000000000000	-7.97557300000000	0.00000000000000	0.00000000000000	-30.15984100000000	0.00000000000000	
16.12994200000000	3.09377000000000	123.65648000000000	-7.29063000000000	0.39334200000000	0.00000000000000	0.12130900000000	-45.29480300000000	749.30845199999999	-65.13374200000000	0.17589500000000	0.00000000000000	-0.10069700000000	0.00000000000000	-7.99297200000000	0.00000000000000	0.00000000000000	-29.98865100000000	0.00000000000000	
16.13161200000000	3.68618100000000	130.97382999999999	-7.10520200000000	0.39521000000000	0.00000000000000	0.12165400000000	-45.66673000000000	745.60291700000005	-64.74292699999999	0.17503800000000	0.00000000000000	-0.10060300000000	0.00000000000000	-7.97759800000000	0.00000000000000	0.00000000000000	-29.81364000000000	0.00000000000000	
16.13327300000000	4.33524400000000	138.41213900000000	-6.87615500000000	0.39700900000000	0.00000000000000	0.12198100000000	-46.04946700000000	741.75632900000005	-64.32260500000000	0.17418000000000	0.00000000000000	-0.10050500000000	0.00000000000000	-7.93649000000000	0.00000000000000	0.00000000000000	-29.63484900000000	0.00000000000000	
16.13494600000000	5.04137000000000	146.00669400000001	-6.60890000000000	0.39874900000000	0.00000000000000	0.12229200000000	-46.44251900000000	737.76735900000006	-63.87255900000000	0.17332300000000	0.00000000000000	-0.10040300000000	0.00000000000000	-7.87541000000000	0.00000000000000	0.00000000000000	-29.45231200000000	0.00000000000000	
16.13660700000000	5.80483000000000	153.78479899999999	-6.30744500000000	0.40043500000000	0.00000000000000	0.12258800000000	-46.84529900000000	733.63469599999996	-63.39261800000000	0.17246700000000	0.00000000000000	-0.10029600000000	0.00000000000000	-7.79863900000000	0.00000000000000	0.00000000000000	-29.26605200000000	0.00000000000000	
16.13827500000000	6.62577300000000	161.76481999999999	-5.97434500000000	0.40207500000000	0.00000000000000	0.12287200000000	-47.25712500000000	729.35705299999995	-62.88266100000000	0.17161400000000	0.00000000000000	-0.10018400000000	0.00000000000000	-7.70892600000000	0.00000000000000	0.00000000000000	-29.07608400000000	0.00000000000000	
16.13994100000000	7.50423400000000	169.95601600000001	-5.61077000000000	0.40367300000000	0.00000000000000	0.12314300000000	-47.67722400000000	724.93316900000002	-62.34261800000000	0.17076500000000	0.00000000000000	-0.10006800000000	0.00000000000000	-7.60756100000000	0.00000000000000	0.00000000000000	-28.88241000000000	0.00000000000000	
16.14160700000000	8.44013100000000	178.35905700000001	-5.21667400000000	0.40523500000000	0.00000000000000	0.12340400000000	-48.10472900000000	720.36181999999997	-61.77246900000000	0.16992000000000	0.00000000000000	-0.09994700000000	0.00000000000000	-7.49453500000000	0.00000000000000	0.00000000000000	-28.68502500000000	0.00000000000000	
16.14327500000000	9.43325600000000	186.96703600000001	-4.79102100000000	0.40676500000000	0.00000000000000	0.12365400000000	-48.53868300000000	715.64182300000004	-61.17225300000000	0.16908100000000	0.00000000000000	-0.09982100000000	0.00000000000000	-7.36878000000000	0.00000000000000	0.00000000000000	-28.48391200000000	0.00000000000000	
16.14494200000000	10.48326500000000	195.76682400000001	-4.33205600000000	0.40826400000000	0.00000000000000	0.12389400000000	-48.97803800000000	710.77204700000004	-60.54206200000000	0.16825000000000	0.00000000000000	-0.09969000000000	0.00000000000000	-7.22843200000000	0.00000000000000	0.00000000000000	-28.27904500000000	0.00000000000000	
16.14660900000000	11.58965200000000	204.74059700000001	-3.83757900000000	0.40973700000000	0.00000000000000	0.12412600000000	-49.42166000000000	705.75142100000005	-59.88204700000000	0.16742600000000	0.00000000000000	-0.09955400000000	0.00000000000000	-7.07111000000000	0.00000000000000	0.00000000000000	-28.07038600000000	0.00000000000000	
16.14827800000000	12.75174100000000	213.86740100000000	-3.30521100000000	0.41118500000000	0.00000000000000	0.12434900000000	-49.86833000000000	700.57894399999998	-59.19241600000000	0.16661300000000	0.00000000000000	-0.09941200000000	0.00000000000000	-6.89418900000000	0.00000000000000	0.00000000000000	-27.85788700000000	0.00000000000000	
16.14994200000000	13.96865800000000	223.12462099999999	-2.73262500000000	0.41261000000000	0.00000000000000	0.12456400000000	-50.31674600000000	695.25369699999999	-58.47344100000000	0.16581000000000	0.00000000000000	-0.09926500000000	0.00000000000000	-6.69503300000000	0.00000000000000	0.00000000000000	-27.64149200000000	0.00000000000000	
16.15161000000000	15.23932300000000	232.48927100000000	-2.11774800000000	0.41401300000000	0.00000000000000	0.12477300000000	-50.76552700000000	689.77485500000000	-57.72545100000000	0.16501900000000	0.00000000000000	-0.09911200000000	0.00000000000000	-6.47119500000000	0.00000000000000	0.00000000000000	-27.42113100000000	0.00000000000000	
16.15327200000000	16.56243200000000	241.93905500000000	-1.45890100000000	0.41539600000000	0.00000000000000	0.12497400000000	-51.21321900000000	684.14169900000002	-56.94883900000000	0.16424200000000	0.00000000000000	-0.09895400000000	0.00000000000000	-6.22056400000000	0.00000000000000	0.00000000000000	-27.19672700000000	0.00000000000000	
16.15494100000000	17.93645100000000	251.45315299999999	-0.75490000000000	0.41676000000000	0.00000000000000	0.12516800000000	-51.65829400000000	678.35362599999996	-56.14406100000000	0.16347900000000	0.00000000000000	-0.09878900000000	0.00000000000000	-5.94146800000000	0.00000000000000	0.00000000000000	-26.96819200000000	0.00000000000000	
16.15661700000000	19.35961000000000	261.01273700000002	-0.00510700000000	0.41810400000000	0.00000000000000	0.12535700000000	-52.09916000000000	672.41016400000001	-55.31163400000000	0.16273300000000	0.00000000000000	-0.09861900000000	0.00000000000000	-5.63272500000000	0.00000000000000	0.00000000000000	-26.73543000000000	0.00000000000000	
16.15827700000000	20.82990300000000	270.60124000000002	0.79055700000000	0.41943000000000	0.00000000000000	0.12554000000000	-52.53415900000000	666.31098599999996	-54.45214000000000	0.16200400000000	0.00000000000000	-0.09844300000000	0.00000000000000	-5.29365900000000	0.00000000000000	0.00000000000000	-26.49833300000000	0.00000000000000	
